<svg xmlns="http://www.w3.org/2000/svg" version="1.1" xmlns:xlink="http://www.w3.org/1999/xlink" xmlns:svgjs="http://svgjs.dev/svgjs" width="1440" height="560" preserveAspectRatio="none" viewBox="0 0 1440 560"><g mask="url(&quot;#SvgjsMask1267&quot;)" fill="none"><path d="M711.28 42.8 a117.53 117.53 0 1 0 235.06 0 a117.53 117.53 0 1 0 -235.06 0z" fill="rgba(255, 183, 197, 0.4)" class="triangle-float3"></path><path d="M180.63 71.09 a108.42 108.42 0 1 0 216.84 0 a108.42 108.42 0 1 0 -216.84 0z" fill="rgba(255, 183, 197, 0.4)" class="triangle-float2"></path><path d="M1201.007,349.734C1238.708,350.444,1280.236,341.352,1297.987,308.084C1315.108,275.997,1296.209,239.059,1276.304,208.62C1258.756,181.784,1233.023,161.527,1201.007,159.78C1165.576,157.847,1128.856,169.49,1109.994,199.546C1090.054,231.319,1090.718,272.463,1110.159,304.544C1128.947,335.547,1164.762,349.051,1201.007,349.734" fill="rgba(255, 183, 197, 0.4)" class="triangle-float3"></path><path d="M758.8362003784912 113.95122954996103L813.6332606633395 67.9710364753456 717.2644409089921 8.765542585380842z" fill="rgba(255, 183, 197, 0.4)" class="triangle-float2"></path><path d="M1176.12 528.61 a105.86 105.86 0 1 0 211.72 0 a105.86 105.86 0 1 0 -211.72 0z" fill="rgba(255, 183, 197, 0.4)" class="triangle-float2"></path><path d="M1022.1414855873845 350.06917488074754L1083.981426353348 435.18455131402806 1169.0968027866286 373.3446105480645 1107.256862020665 288.22923411478394z" fill="rgba(255, 183, 197, 0.4)" class="triangle-float2"></path><path d="M1394.2271224386102 291.98774835507277L1420.1665132738833 128.2128801791191 1256.3916450979295 102.273489343846 1230.4522542626564 266.04835751979965z" fill="rgba(255, 183, 197, 0.4)" class="triangle-float1"></path><path d="M927.8756734708346 232.0046578936555L999.7863165382448 351.68406571337766 1047.5550812905567 160.0940148262453z" fill="rgba(255, 183, 197, 0.4)" class="triangle-float3"></path><path d="M140.962229713609 287.4409718286644L110.17871788178029 381.8765531587461 195.41022844941148 365.3092257863352z" fill="rgba(255, 183, 197, 0.4)" class="triangle-float3"></path><path d="M1430.442,714.292C1485.092,712.382,1530.659,678.404,1559.436,631.905C1590.115,582.332,1611.017,520.49,1581.489,470.223C1552.216,420.391,1488.14,408.988,1430.442,412.311C1379.095,415.268,1334.377,442.632,1306.796,486.043C1276.716,533.387,1258.109,592.182,1284.826,641.502C1312.529,692.641,1372.316,716.323,1430.442,714.292" fill="rgba(255, 183, 197, 0.4)" class="triangle-float1"></path><path d="M555.1997090766519 416.68720697137394L520.9422829624889 577.8557253412985 682.1108013324134 612.1131514554614 716.3682274465764 450.9446330855369z" fill="rgba(255, 183, 197, 0.4)" class="triangle-float1"></path><path d="M855.6902922885785 90.5847132518534L838.6540174132099 31.172162182249252 758.0533282464879 86.43285003010416z" fill="rgba(255, 183, 197, 0.4)" class="triangle-float1"></path><path d="M153.127,645.428C199.042,644.72,244.175,625.959,267.222,586.241C290.348,546.387,287.037,496.21,262.255,457.364C239.193,421.214,195.987,408.694,153.127,407.399C107.209,406.012,57.244,412.059,31.948,450.406C4.514,491.995,6.475,547.539,32.77,589.857C57.766,630.086,105.771,646.158,153.127,645.428" fill="rgba(255, 183, 197, 0.4)" class="triangle-float1"></path><path d="M130.52865800151363 504.3601750256509L228.34013469882893 458.7499343862435 111.01903539106023 334.8378396599743z" fill="rgba(255, 183, 197, 0.4)" class="triangle-float1"></path><path d="M858.930177747536 404.6404095532895L753.2232559266062 493.3390486661174 841.921895039434 599.0459704870473 947.6288168603639 510.34733137421944z" fill="rgba(255, 183, 197, 0.4)" class="triangle-float3"></path><path d="M491.36 71.67 a100.2 100.2 0 1 0 200.4 0 a100.2 100.2 0 1 0 -200.4 0z" fill="rgba(255, 183, 197, 0.4)" class="triangle-float1"></path><path d="M382.727,363.134C422.484,363.416,465.541,352.268,484.029,317.07C501.705,283.419,483.237,244.292,461.545,213.078C443.358,186.907,414.556,172.913,382.727,171.302C347.189,169.504,308.87,174.976,288.766,204.335C266.275,237.18,263.611,281.392,283.883,315.652C303.833,349.369,343.551,362.856,382.727,363.134" fill="rgba(255, 183, 197, 0.4)" class="triangle-float1"></path><path d="M1252.854,133.27C1265.9,132.647,1277.839,126.032,1284.347,114.708C1290.832,103.424,1291.009,89.524,1284.456,78.279C1277.948,67.112,1265.765,61.266,1252.854,60.666C1238.638,60.006,1223.467,63.147,1215.723,75.087C1207.383,87.946,1207.432,105.069,1215.677,117.989C1223.402,130.094,1238.51,133.955,1252.854,133.27" fill="rgba(255, 183, 197, 0.4)" class="triangle-float1"></path><path d="M1144.1368391605395 213.54500548292677L1101.9786944486334 97.71645484086436 986.1501438065709 139.87459955277052 1028.308288518477 255.70315019483292z" fill="rgba(255, 183, 197, 0.4)" class="triangle-float1"></path><path d="M1352.34,651.222C1406.217,651.431,1465.812,643.607,1493.122,597.165C1520.686,550.291,1502.833,491.673,1472.834,446.318C1446.126,405.939,1400.752,384.294,1352.34,384.321C1303.98,384.348,1258.607,406.017,1232.082,446.454C1202.535,491.498,1186.156,549.629,1213.437,596.081C1240.476,642.121,1298.947,651.015,1352.34,651.222" fill="rgba(255, 183, 197, 0.4)" class="triangle-float3"></path></g><defs><mask id="SvgjsMask1267"><rect width="1440" height="560" fill="#ffffff"></rect></mask><style>
                @keyframes float1 {
                    0%{transform: translate(0, 0)}
                    50%{transform: translate(-10px, 0)}
                    100%{transform: translate(0, 0)}
                }

                .triangle-float1 {
                    animation: float1 5s infinite;
                }

                @keyframes float2 {
                    0%{transform: translate(0, 0)}
                    50%{transform: translate(-5px, -5px)}
                    100%{transform: translate(0, 0)}
                }

                .triangle-float2 {
                    animation: float2 4s infinite;
                }

                @keyframes float3 {
                    0%{transform: translate(0, 0)}
                    50%{transform: translate(0, -10px)}
                    100%{transform: translate(0, 0)}
                }

                .triangle-float3 {
                    animation: float3 6s infinite;
                }
            </style></defs></svg>