<svg xmlns="http://www.w3.org/2000/svg" version="1.1" xmlns:xlink="http://www.w3.org/1999/xlink" xmlns:svgjs="http://svgjs.dev/svgjs" width="1440" height="560" preserveAspectRatio="none" viewBox="0 0 1440 560"><g mask="url(&quot;#SvgjsMask1044&quot;)" fill="none"><path d="M-256.4 52.25C-99.54 59.85 59.98 312.7 305.93 332.25 551.89 351.8 497.05 550.24 587.1 564.61" stroke="rgba(33, 31, 38, 1)" stroke-width="2"></path><path d="M-127.01 271.55C20 274.94 197.24 470.3 423.5 478.75 649.76 487.2 618.78 637.38 698.75 643.52" stroke="rgba(33, 31, 38, 1)" stroke-width="2"></path><path d="M-121.92 405.73C-5.27 403.41 89.22 246.55 317.63 248.93 546.03 251.31 610.54 625.3 757.17 654.67" stroke="rgba(33, 31, 38, 1)" stroke-width="2"></path><path d="M-237.92 470.78C-87.84 470.12 52.44 347.06 349.62 347.58 646.8 348.1 772.14 641.67 937.16 650.4" stroke="rgba(33, 31, 38, 1)" stroke-width="2"></path><path d="M-166.91 166.89C-14.9 169.79 168.69 358.15 406.86 368.49 645.03 378.83 605.66 566.8 693.75 577.48" stroke="rgba(33, 31, 38, 1)" stroke-width="2"></path></g><defs><mask id="SvgjsMask1044"><rect width="1440" height="560" fill="#ffffff"></rect></mask></defs></svg>